<svg height="512pt" viewBox="0 -8 512 512" width="512pt" xmlns="http://www.w3.org/2000/svg"><path d="m256 314.375-147.898438 56.660156 16.5625 100.027344c2.449219 14.800781 15.246094 25.65625 30.25 25.65625h202.171876c15.003906 0 27.800781-10.855469 30.253906-25.65625l16.5625-100.027344zm0 0" fill="#f8485e"/><path d="m155.566406 471.0625-16.5625-100.03125 132.449219-50.738281-15.453125-5.917969-147.898438 56.65625 16.5625 100.03125c2.449219 14.796875 15.246094 25.652344 30.25 25.652344h30.90625c-15.003906 0-27.804687-10.851563-30.253906-25.652344zm0 0" fill="#e8273f"/><path d="m256 32.140625-223.859375 32.136719 46.675781 281.925781c2.375 14.324219 14.761719 24.832031 29.285156 24.832031h295.800782c14.519531 0 26.90625-10.507812 29.28125-24.832031l46.679687-281.925781zm0 0" fill="#ff6f7f"/><path d="m109.722656 346.203125-46.675781-281.925781 208.40625-29.917969-15.453125-2.21875-223.859375 32.136719 46.675781 281.925781c2.375 14.324219 14.761719 24.832031 29.285156 24.832031h30.902344c-14.519531 0-26.910156-10.507812-29.28125-24.832031zm0 0" fill="#f8485e"/><g fill="#423e4f"><path d="m156.144531 223.828125c-4.265625 0-7.726562-3.460937-7.726562-7.726563v-18.074218c0-4.265625 3.460937-7.726563 7.726562-7.726563s7.726563 3.460938 7.726563 7.726563v18.074218c0 4.265626-3.460938 7.726563-7.726563 7.726563zm0 0"/><path d="m355.855469 223.828125c-4.265625 0-7.726563-3.460937-7.726563-7.726563v-18.074218c0-4.265625 3.460938-7.726563 7.726563-7.726563s7.726562 3.460938 7.726562 7.726563v18.074218c0 4.265626-3.460937 7.726563-7.726562 7.726563zm0 0"/><path d="m256 233.472656c-11.835938 0-22.9375-4.9375-30.464844-13.542968-2.808594-3.214844-2.480468-8.09375.734375-10.902344 3.210938-2.808594 8.09375-2.480469 10.902344.730468 4.589844 5.25 11.453125 8.261719 18.828125 8.261719s14.238281-3.007812 18.828125-8.261719c2.808594-3.210937 7.6875-3.539062 10.902344-.730468 3.210937 2.808594 3.539062 7.6875.730469 10.902344-7.523438 8.609374-18.625 13.542968-30.460938 13.542968zm0 0"/></g><path d="m479.859375 0h-447.71875c-17.75 0-32.140625 14.390625-32.140625 32.140625s14.390625 32.136719 32.140625 32.136719h447.71875c17.75 0 32.140625-14.386719 32.140625-32.136719s-14.390625-32.140625-32.140625-32.140625zm0 0" fill="#ebebeb"/><path d="m30.90625 32.140625c0-17.75 14.390625-32.140625 32.140625-32.140625h-30.90625c-17.75 0-32.140625 14.386719-32.140625 32.140625 0 17.75 14.390625 32.136719 32.140625 32.136719h30.90625c-17.75 0-32.140625-14.386719-32.140625-32.136719zm0 0" fill="#c7c5cb"/></svg>