<svg height="512" viewBox="0 0 60 56" width="512" xmlns="http://www.w3.org/2000/svg"><g id="056---Droplett" fill="none"><ellipse id="Oval" cx="30" cy="42" fill="#3b97d3" rx="17" ry="5"/><path id="Shape" d="m59 46c0 4.97-12.98 9-29 9s-29-4.03-29-9c0-4.07 8.71-7.51 20.66-8.62l.01.11c-8.34 1.03-14.23 3.55-14.23 6.51 0 3.87 10.1 7 22.56 7s22.56-3.13 22.56-7c0-2.96-5.89-5.48-14.23-6.51l.01-.11c11.95 1.11 20.66 4.55 20.66 8.62z" fill="#3b97d3"/><path id="Shape" d="m52.56 44c0 3.87-10.1 7-22.56 7s-22.56-3.13-22.56-7c0-2.96 5.89-5.48 14.23-6.51h.04l.02.13c-5.2.87-8.73 2.5-8.73 4.38 0 2.76 7.61 5 17 5s17-2.24 17-5c0-1.88-3.53-3.51-8.73-4.38l.02-.13h.04c8.34 1.03 14.23 3.55 14.23 6.51z" fill="#2980ba"/><path id="Shape" d="m30 56c-14.543 0-30-3.5-30-10 0-5.618 11.618-8.691 21.567-9.616.3558365-.0332257.7023687.125909.9090613.4174596.2066926.2915507.242144.6712237.093.996-.149144.3247764-.4602248.5453147-.8160613.5785404-12.83 1.191-19.753 4.817-19.753 7.624 0 3.784 11.5 8 28 8s28-4.216 28-8c0-2.807-6.923-6.433-19.753-7.624-.5489619-.0527287-.951609-.5399317-.9-1.089.0227224-.2647183.1508954-.5091933.3556974-.6784512.204802-.1692578.4690423-.2490914.7333026-.2215488 9.946.922 21.564 3.995 21.564 9.613 0 6.5-15.457 10-30 10z" fill="#b0d3f0"/><path id="Shape" d="m30 52c-11.421 0-23.56-2.8-23.56-8 0-3.541 5.664-6.346 15.149-7.5.5363192-.0459038 1.0127475.3409588 1.0779216.8752787s-.3042931 1.0243613-.8359216 1.1087213c-8.697 1.06-13.391 3.633-13.391 5.516 0 2.506 8.2 6 21.56 6s21.56-3.494 21.56-6c0-1.883-4.694-4.456-13.391-5.518-.5476762-.0671632-.9374539-.5652372-.871-1.113.0283545-.2647382.1626748-.5067214.3723537-.6708098.209679-.1640884.4768545-.2363036.7406463-.2001902 9.489 1.156 15.149 3.961 15.149 7.502 0 5.2-12.139 8-23.56 8z" fill="#b0d3f0"/><path id="Shape" d="m12 42c0-3.293 6.013-4.775 9.6-5.366.2896671-.0448835.5845749.0379071.8085597.2269902.2239847.189083.3550842.4659184.3594403.7590098.0000915.5093993-.3827486.9374567-.889.994-5.74.953-7.879 2.586-7.879 3.386 0 1.4 5.5 4 16 4s16-2.6 16-4c0-.807-2.146-2.438-7.906-3.391-.3619087-.045105-.6705614-.2836604-.8054338-.6225141-.1348725-.3388536-.0745732-.7242614.1573518-1.0057275.231925-.281466.5986912-.4143484.957082-.3467584 3.584.591 9.597 2.073 9.597 5.366 0 7.986-36 7.98-36 0z" fill="#b0d3f0"/><path id="Shape" d="m39 34c0 4.9705627-4.0294373 9-9 9s-9-4.0294373-9-9c0-4.038 5.941-13.4 8.169-16.764.1856189-.2772909.4973166-.4437276.831-.4437276s.6453811.1664367.831.4437276c2.228 3.364 8.169 12.726 8.169 16.764z" fill="#90bae1"/><path id="Shape" d="m29 39c-1.3410078.0507877-2.6425-.4596689-3.5914156-1.4085844-.9489155-.9489156-1.4593721-2.2504078-1.4085844-3.5914156 0-.5522847.4477153-1 1-1s1 .4477153 1 1c-.0444331.808454.2573422 1.5976058.8298682 2.1701318s1.3616778.8743013 2.1701318.8298682c.5522847 0 1 .4477153 1 1s-.4477153 1-1 1z" fill="#b0d3f0"/><circle id="Oval" cx="30" cy="7" fill="#b0d3f0" r="3"/><g fill="#9fc9d3"><path id="Shape" d="m21 22c-.5522847 0-1-.4477153-1-1v-20c0-.55228475.4477153-1 1-1s1 .44771525 1 1v20c0 .5522847-.4477153 1-1 1z"/><path id="Shape" d="m16 34c-.5522847 0-1-.4477153-1-1v-27c0-.55228475.4477153-1 1-1s1 .44771525 1 1v27c0 .5522847-.4477153 1-1 1z"/><path id="Shape" d="m44 34c-.5522847 0-1-.4477153-1-1v-27c0-.55228475.4477153-1 1-1s1 .44771525 1 1v27c0 .5522847-.4477153 1-1 1z"/><path id="Shape" d="m39 22c-.5522847 0-1-.4477153-1-1v-20c0-.55228475.4477153-1 1-1s1 .44771525 1 1v20c0 .5522847-.4477153 1-1 1z"/></g></g></svg>