<svg height="512" viewBox="0 0 512 512" width="512" xmlns="http://www.w3.org/2000/svg"><g id="filled_outline" data-name="filled outline"><path d="m464 216h-64a24 24 0 0 0 -24 24 24 24 0 0 0 -24-24h-64a24 24 0 0 0 -24 24v27.6a12.262 12.262 0 0 0 11.775 12.4 12 12 0 0 0 12.225-12v84h64v-84a12 12 0 0 0 12.225 12 12.262 12.262 0 0 0 11.775-12.4 12.262 12.262 0 0 0 11.775 12.4 12 12 0 0 0 12.225-12v84h64v-84a12 12 0 0 0 12.225 12 12.262 12.262 0 0 0 11.775-12.4v-27.6a24 24 0 0 0 -24-24z" fill="#0082d8"/><circle cx="432" cy="184" fill="#0082d8" r="32"/><circle cx="320" cy="184" fill="#0082d8" r="32"/><path d="m464 352h-64a24 24 0 0 0 -24 24 24 24 0 0 0 -24-24h-64a24 24 0 0 0 -24 24v27.6a12.262 12.262 0 0 0 11.775 12.4 12 12 0 0 0 12.225-12v84h64v-84a12 12 0 0 0 12.225 12 12.262 12.262 0 0 0 11.775-12.4 12.262 12.262 0 0 0 11.775 12.4 12 12 0 0 0 12.225-12v84h64v-84a12 12 0 0 0 12.225 12 12.262 12.262 0 0 0 11.775-12.4v-27.6a24 24 0 0 0 -24-24z" fill="#0094f6"/><circle cx="432" cy="320" fill="#0094f6" r="32"/><circle cx="320" cy="320" fill="#0094f6" r="32"/><circle cx="192" cy="104" fill="#fbb540" r="80"/><path d="m192 96a8 8 0 0 1 -8-8v-24a8 8 0 0 1 16 0v24a8 8 0 0 1 -8 8z" fill="#c75b93"/><path d="m178.136 104a7.963 7.963 0 0 1 -3.992-1.073l-20.785-12a8 8 0 0 1 8-13.856l20.785 12a8 8 0 0 1 -4.008 14.929z" fill="#c75b93"/><path d="m157.366 132a8 8 0 0 1 -4.007-14.929l20.785-12a8 8 0 1 1 8 13.856l-20.785 12a7.967 7.967 0 0 1 -3.993 1.073z" fill="#c75b93"/><path d="m192 152a8 8 0 0 1 -8-8v-24a8 8 0 0 1 16 0v24a8 8 0 0 1 -8 8z" fill="#c75b93"/><path d="m226.634 132a7.967 7.967 0 0 1 -3.993-1.073l-20.785-12a8 8 0 1 1 8-13.856l20.785 12a8 8 0 0 1 -4.007 14.929z" fill="#c75b93"/><path d="m205.864 104a8 8 0 0 1 -4.008-14.929l20.785-12a8 8 0 1 1 8 13.856l-20.785 12a7.963 7.963 0 0 1 -3.992 1.073z" fill="#c75b93"/><g fill="#e46ca5"><circle cx="192" cy="104" r="16"/><circle cx="192" cy="56" r="13"/><circle cx="150.431" cy="80" r="16"/><circle cx="150.431" cy="128" r="13"/><circle cx="192" cy="152" r="16"/><circle cx="233.569" cy="128" r="13"/><circle cx="233.569" cy="80" r="16"/></g><path d="m168 256v32h32v16l32-32-32-32v16z" fill="#fbb540"/><path d="m112 240h-64a24 24 0 0 0 -24 24v27.6a12.262 12.262 0 0 0 11.775 12.4 12 12 0 0 0 12.225-12v84h64v-84a12 12 0 0 0 12.225 12 12.262 12.262 0 0 0 11.775-12.4v-27.6a24 24 0 0 0 -24-24z" fill="#0094f6"/><circle cx="80" cy="208" fill="#0094f6" r="32"/><path d="m72 312h16v64h-16z" fill="#0a71cd"/><path d="m48 264v28a11.985 11.985 0 0 1 -8 11.31v-39.31z" fill="#0a71cd"/><path d="m120 264v39.31a11.985 11.985 0 0 1 -8-11.31v-28z" fill="#0a71cd"/><path d="m400 240v28a11.985 11.985 0 0 1 -8 11.31v-39.31z" fill="#0082d8"/><path d="m472 240v39.31a11.985 11.985 0 0 1 -8-11.31v-28z" fill="#0082d8"/><path d="m424 424h16v64h-16z" fill="#0a71cd"/><path d="m400 240v28a11.985 11.985 0 0 1 -8 11.31v-39.31z" fill="#0a71cd"/><path d="m472 240v39.31a11.985 11.985 0 0 1 -8-11.31v-28z" fill="#0a71cd"/><path d="m400 376v28a11.985 11.985 0 0 1 -8 11.31v-39.31z" fill="#0a71cd"/><path d="m472 376v39.31a11.985 11.985 0 0 1 -8-11.31v-28z" fill="#0a71cd"/><path d="m288 240v28a11.985 11.985 0 0 1 -8 11.31v-39.31z" fill="#0082d8"/><path d="m360 240v39.31a11.985 11.985 0 0 1 -8-11.31v-28z" fill="#0082d8"/><path d="m312 424h16v64h-16z" fill="#0a71cd"/><path d="m288 240v28a11.985 11.985 0 0 1 -8 11.31v-39.31z" fill="#0a71cd"/><path d="m360 240v39.31a11.985 11.985 0 0 1 -8-11.31v-28z" fill="#0a71cd"/><path d="m288 376v28a11.985 11.985 0 0 1 -8 11.31v-39.31z" fill="#0a71cd"/><path d="m360 376v39.31a11.985 11.985 0 0 1 -8-11.31v-28z" fill="#0a71cd"/><path d="m240.069 116.742a12.963 12.963 0 0 0 -11.362-.786l-13.115-7.572a23.757 23.757 0 0 0 0-8.768l9.989-5.767a16 16 0 1 0 -8-13.856l-10 5.774a24.017 24.017 0 0 0 -7.581-4.391v-15.143a13 13 0 1 0 -16 0v15.143a24.017 24.017 0 0 0 -7.581 4.391l-10-5.774a16 16 0 1 0 -8 13.856l9.989 5.767a23.757 23.757 0 0 0 0 8.768l-13.115 7.572a13 13 0 1 0 8 13.855l13.126-7.578a24.017 24.017 0 0 0 7.581 4.391v11.534a16 16 0 1 0 16 0v-11.534a24.017 24.017 0 0 0 7.581-4.391l13.126 7.578a13 13 0 1 0 19.362-13.069zm-56.069-12.742a8 8 0 1 1 8 8 8.009 8.009 0 0 1 -8-8z"/><path d="m192 16a88 88 0 1 0 88 88 88.1 88.1 0 0 0 -88-88zm0 160a72 72 0 1 1 72-72 72.081 72.081 0 0 1 -72 72z"/><path d="m464 208h-.022a40 40 0 1 0 -63.956 0h-.022a31.923 31.923 0 0 0 -24 10.868 31.923 31.923 0 0 0 -24-10.868h-.022a40 40 0 1 0 -63.956 0h-.022a32.036 32.036 0 0 0 -32 32v27.6a20.3 20.3 0 0 0 19.629 20.4 20.585 20.585 0 0 0 4.371-.4v57.409a32.057 32.057 0 0 0 -24 30.991v27.6a20.035 20.035 0 0 0 24 20v64.4a8 8 0 0 0 8 8h64a8 8 0 0 0 8-8v-64.4a20.414 20.414 0 0 0 4.371.393 19.567 19.567 0 0 0 11.629-4.141 19.567 19.567 0 0 0 11.629 4.148 20.449 20.449 0 0 0 4.371-.4v64.4a8 8 0 0 0 8 8h64a8 8 0 0 0 8-8v-64.4a20.035 20.035 0 0 0 24-20v-27.6a32.057 32.057 0 0 0 -24-30.987v-57.413a20.035 20.035 0 0 0 24-20v-27.6a32.036 32.036 0 0 0 -32-32zm-56-24a24 24 0 1 1 24 24 24.028 24.028 0 0 1 -24-24zm24 160a24 24 0 1 1 24-24 24.028 24.028 0 0 1 -24 24zm-40 1.013a32.037 32.037 0 0 0 -16 9.855 32.037 32.037 0 0 0 -16-9.855v-57.413a20.478 20.478 0 0 0 4.371.393 19.567 19.567 0 0 0 11.629-4.141 19.567 19.567 0 0 0 11.629 4.148 20.579 20.579 0 0 0 4.371-.4zm-96-25.013a24 24 0 1 1 24 24 24.028 24.028 0 0 1 -24-24zm0-136a24 24 0 1 1 24 24 24.028 24.028 0 0 1 -24-24zm-17.2 86.854a3.981 3.981 0 0 1 -2.8 1.146h-.078a4.288 4.288 0 0 1 -3.922-4.4v-27.6a16.019 16.019 0 0 1 16-16h64a16.019 16.019 0 0 1 16 16v27.6a4.288 4.288 0 0 1 -3.922 4.4 4.026 4.026 0 0 1 -2.88-1.145 3.976 3.976 0 0 1 -1.198-2.855v-28h-16v48.022a39.912 39.912 0 0 0 -48 0v-48.022h-16v28a3.976 3.976 0 0 1 -1.2 2.854zm85.278 137.146a3.825 3.825 0 0 1 -2.88-1.145 3.976 3.976 0 0 1 -1.198-2.855v-28h-16v104h-16v-56h-16v56h-16v-104h-16v28a3.976 3.976 0 0 1 -1.2 2.854 3.933 3.933 0 0 1 -2.88 1.145 4.288 4.288 0 0 1 -3.92-4.399v-27.6a16.019 16.019 0 0 1 16-16h64a16.019 16.019 0 0 1 16 16v27.6a4.288 4.288 0 0 1 -3.922 4.4zm115.922-32v27.6a4.288 4.288 0 0 1 -3.922 4.4 3.83 3.83 0 0 1 -2.88-1.145 3.976 3.976 0 0 1 -1.198-2.855v-28h-16v104h-16v-56h-16v56h-16v-104h-16v28a4 4 0 0 1 -4.078 4 4.288 4.288 0 0 1 -3.922-4.4v-27.6a16.019 16.019 0 0 1 16-16h64a16.019 16.019 0 0 1 16 16zm0-108.4a4.288 4.288 0 0 1 -3.922 4.4 4.032 4.032 0 0 1 -2.88-1.145 3.976 3.976 0 0 1 -1.198-2.855v-28h-16v48.022a39.912 39.912 0 0 0 -48 0v-48.022h-16v28a4 4 0 0 1 -4 4h-.078a4.288 4.288 0 0 1 -3.922-4.4v-27.6a16.019 16.019 0 0 1 16-16h64a16.019 16.019 0 0 1 16 16z"/><path d="m112 232h-.022a40 40 0 1 0 -63.956 0h-.022a32.036 32.036 0 0 0 -32 32v27.6a20.035 20.035 0 0 0 24 20v64.4a8 8 0 0 0 8 8h64a8 8 0 0 0 8-8v-64.4a19.959 19.959 0 0 0 4.371.393 20.3 20.3 0 0 0 19.629-20.393v-27.6a32.036 32.036 0 0 0 -32-32zm-56-24a24 24 0 1 1 24 24 24.028 24.028 0 0 1 -24-24zm72 83.6a4.288 4.288 0 0 1 -3.922 4.4 4 4 0 0 1 -4.078-4v-28h-16v104h-16v-64h-16v64h-16v-104h-16v28a3.976 3.976 0 0 1 -1.2 2.854 3.906 3.906 0 0 1 -2.878 1.146 4.288 4.288 0 0 1 -3.922-4.4v-27.6a16.019 16.019 0 0 1 16-16h64a16.019 16.019 0 0 1 16 16z"/><path d="m205.657 234.343a8 8 0 0 0 -13.657 5.657v8h-24a8 8 0 0 0 -8 8v32a8 8 0 0 0 8 8h24v8a8 8 0 0 0 13.657 5.657l32-32a8 8 0 0 0 0-11.314zm1.837 50.849a8 8 0 0 0 -7.494-5.192h-24v-16h24a8 8 0 0 0 7.494-5.192l13.192 13.192z"/></g></svg>